<svg xmlns="http://www.w3.org/2000/svg" viewBox="0 0 24 24">
  <defs>
    <linearGradient id="g" x1="0%" y1="0%" x2="100%" y2="100%">
      <stop offset="0%" stop-color="#60a5fa"/>
      <stop offset="55%" stop-color="#3b82f6"/>
      <stop offset="100%" stop-color="#2563eb"/>
    </linearGradient>
  </defs>
  <path fill="url(#g)" d="M14.6 16.6a1 1 0 0 0 1.4 1.4l5-5a1 1 0 0 0 0-1.4l-5-5a1 1 0 0 0-1.4 1.4l4.29 4.3Z"/>
  <path fill="url(#g)" d="M9.4 7.4a1 1 0 0 0-1.4-1.4l-5 5a1 1 0 0 0 0 1.4l5 5a1 1 0 0 0 1.4-1.4L5.11 12Z"/>
</svg>
